<mxfile host="app.diagrams.net" agent="Mozilla/5.0 (Windows NT 10.0; Win64; x64) AppleWebKit/537.36 (KHTML, like Gecko) Chrome/135.0.0.0 Safari/537.36" version="26.2.13">
  <diagram name="第 1 页" id="mS3boPt9IDOCjsfpSdqU">
    <mxGraphModel dx="2017" dy="619" grid="1" gridSize="10" guides="1" tooltips="1" connect="1" arrows="1" fold="1" page="1" pageScale="1" pageWidth="827" pageHeight="1169" math="0" shadow="0">
      <root>
        <mxCell id="0" />
        <mxCell id="1" parent="0" />
        <mxCell id="YFolrUhHJh0Nz9L954p8-1" style="edgeStyle=orthogonalEdgeStyle;rounded=0;orthogonalLoop=1;jettySize=auto;html=1;entryX=0.5;entryY=0;entryDx=0;entryDy=0;" edge="1" parent="1" source="YFolrUhHJh0Nz9L954p8-2" target="YFolrUhHJh0Nz9L954p8-4">
          <mxGeometry relative="1" as="geometry" />
        </mxCell>
        <mxCell id="YFolrUhHJh0Nz9L954p8-2" value="初始化遊戲" style="rounded=0;whiteSpace=wrap;html=1;" vertex="1" parent="1">
          <mxGeometry x="-510" y="75" width="90" height="40" as="geometry" />
        </mxCell>
        <mxCell id="YFolrUhHJh0Nz9L954p8-3" style="edgeStyle=orthogonalEdgeStyle;rounded=0;orthogonalLoop=1;jettySize=auto;html=1;entryX=0.5;entryY=0;entryDx=0;entryDy=0;" edge="1" parent="1" source="YFolrUhHJh0Nz9L954p8-4" target="YFolrUhHJh0Nz9L954p8-6">
          <mxGeometry relative="1" as="geometry" />
        </mxCell>
        <mxCell id="YFolrUhHJh0Nz9L954p8-4" value="game.process_player_actions" style="rounded=0;whiteSpace=wrap;html=1;" vertex="1" parent="1">
          <mxGeometry x="-565" y="160" width="200" height="50" as="geometry" />
        </mxCell>
        <mxCell id="YFolrUhHJh0Nz9L954p8-5" style="edgeStyle=orthogonalEdgeStyle;rounded=0;orthogonalLoop=1;jettySize=auto;html=1;entryX=0.5;entryY=0;entryDx=0;entryDy=0;" edge="1" parent="1" source="YFolrUhHJh0Nz9L954p8-6" target="YFolrUhHJh0Nz9L954p8-8">
          <mxGeometry relative="1" as="geometry" />
        </mxCell>
        <mxCell id="YFolrUhHJh0Nz9L954p8-6" value="(玩家模式才有)&lt;div&gt;前端設置玩家動作&lt;/div&gt;" style="rounded=0;whiteSpace=wrap;html=1;" vertex="1" parent="1">
          <mxGeometry x="-562.5" y="250" width="195" height="60" as="geometry" />
        </mxCell>
        <mxCell id="YFolrUhHJh0Nz9L954p8-7" style="edgeStyle=orthogonalEdgeStyle;rounded=0;orthogonalLoop=1;jettySize=auto;html=1;entryX=0.5;entryY=0;entryDx=0;entryDy=0;" edge="1" parent="1" source="YFolrUhHJh0Nz9L954p8-8" target="YFolrUhHJh0Nz9L954p8-10">
          <mxGeometry relative="1" as="geometry" />
        </mxCell>
        <mxCell id="YFolrUhHJh0Nz9L954p8-8" value="game.get_next_player_behavior" style="rounded=0;whiteSpace=wrap;html=1;" vertex="1" parent="1">
          <mxGeometry x="-577.5" y="340" width="225" height="50" as="geometry" />
        </mxCell>
        <mxCell id="YFolrUhHJh0Nz9L954p8-9" style="edgeStyle=orthogonalEdgeStyle;rounded=0;orthogonalLoop=1;jettySize=auto;html=1;entryX=0.5;entryY=0;entryDx=0;entryDy=0;" edge="1" parent="1" source="YFolrUhHJh0Nz9L954p8-10" target="YFolrUhHJh0Nz9L954p8-4">
          <mxGeometry relative="1" as="geometry">
            <Array as="points">
              <mxPoint x="-465" y="510" />
              <mxPoint x="-650" y="510" />
              <mxPoint x="-650" y="140" />
              <mxPoint x="-465" y="140" />
            </Array>
          </mxGeometry>
        </mxCell>
        <mxCell id="YFolrUhHJh0Nz9L954p8-10" value="&lt;div&gt;(玩家模式才有)&lt;/div&gt;前端設置玩家動作" style="rounded=0;whiteSpace=wrap;html=1;" vertex="1" parent="1">
          <mxGeometry x="-562.5" y="420" width="195" height="60" as="geometry" />
        </mxCell>
      </root>
    </mxGraphModel>
  </diagram>
</mxfile>
